<svg width="72" height="72" viewBox="0 0 72 72" fill="none" xmlns="http://www.w3.org/2000/svg">
<rect width="72" height="72" rx="36" fill="#FF2056"/>
<path d="M42.1395 28.2935C42.5721 27.8609 43.2743 27.8609 43.7069 28.2935C44.139 28.726 44.1391 29.4274 43.7069 29.8599L37.5663 35.9995L43.7069 42.1392C44.1393 42.5718 44.1394 43.274 43.7069 43.7065C43.2744 44.139 42.5721 44.1389 42.1395 43.7065L35.9999 37.5659L29.8602 43.7065C29.4277 44.1386 28.7263 44.1386 28.2938 43.7065C27.8613 43.274 27.8613 42.5717 28.2938 42.1392L34.4325 35.9995L28.2938 29.8599C27.8613 29.4273 27.8613 28.726 28.2938 28.2935C28.7264 27.8609 29.4276 27.8609 29.8602 28.2935L35.9999 34.4321L42.1395 28.2935Z" fill="white"/>
</svg>
