<svg width="24" height="24" viewBox="0 0 24 24" fill="none" xmlns="http://www.w3.org/2000/svg">
<path d="M12 7.86719C12.4418 7.86719 12.7998 8.22516 12.7998 8.66699V11.2002H15.334L15.415 11.2041C15.8185 11.245 16.1338 11.5858 16.1338 12C16.1338 12.4142 15.8185 12.755 15.415 12.7959L15.334 12.7998H12.7998V15.334C12.7995 15.7755 12.4416 16.1338 12 16.1338C11.5584 16.1338 11.2005 15.7755 11.2002 15.334V12.7998H8.66699C8.22516 12.7998 7.86719 12.4418 7.86719 12C7.86719 11.5582 8.22516 11.2002 8.66699 11.2002H11.2002V8.66699C11.2002 8.22516 11.5582 7.86719 12 7.86719Z" fill="#101828"/>
<path fill-rule="evenodd" clip-rule="evenodd" d="M12 2.86719C17.0439 2.86739 21.1336 6.95607 21.1338 12C21.1336 17.0439 17.0439 21.1336 12 21.1338C6.95605 21.1336 2.86735 17.044 2.86719 12C2.86736 6.95606 6.95606 2.86736 12 2.86719ZM12 4.4668C7.83971 4.46697 4.46697 7.83971 4.4668 12C4.46696 16.1603 7.83971 19.533 12 19.5332C16.1603 19.533 19.533 16.1603 19.5332 12C19.533 7.83973 16.1603 4.46699 12 4.4668Z" fill="#101828"/>
</svg>
