<svg width="24" height="24" viewBox="0 0 24 24" fill="none" xmlns="http://www.w3.org/2000/svg">
<path d="M12 2.0332C12.6539 2.03329 13.2817 2.29357 13.7441 2.75586C14.2064 3.21834 14.4667 3.84607 14.4668 4.5V4.57129L14.4727 4.65527C14.4851 4.73743 14.5154 4.81684 14.5615 4.88672C14.6233 4.97999 14.7117 5.05345 14.8145 5.09766L14.8223 5.10156C14.9272 5.14789 15.0443 5.161 15.1572 5.14062C15.268 5.12055 15.3698 5.06787 15.4512 4.99023L15.5 4.94238C15.729 4.71312 16.0015 4.53136 16.3008 4.40723C16.6 4.28319 16.9212 4.21885 17.2451 4.21875C17.5691 4.21875 17.8911 4.28321 18.1904 4.40723C18.4895 4.53123 18.7614 4.71344 18.9902 4.94238L19.1533 5.12207C19.3067 5.30894 19.4324 5.51806 19.5254 5.74219C19.6495 6.04153 19.7138 6.36345 19.7139 6.6875C19.7138 7.01149 19.6494 7.33253 19.5254 7.63184C19.4013 7.93125 19.2196 8.20355 18.9902 8.43262L18.9893 8.43164L18.9404 8.48242C18.8636 8.56345 18.812 8.66542 18.792 8.77539C18.7716 8.88825 18.7858 9.00539 18.832 9.11035C18.8551 9.16264 18.8714 9.21776 18.8828 9.27344C18.9253 9.33814 18.9808 9.39432 19.0459 9.4375C19.1393 9.49935 19.2493 9.53268 19.3613 9.5332H19.5C20.1539 9.53329 20.7817 9.79357 21.2441 10.2559C21.7064 10.7183 21.9667 11.3461 21.9668 12C21.9667 12.6541 21.7067 13.2816 21.2441 13.7441C20.7816 14.2066 20.1541 14.4667 19.5 14.4668H19.4277L19.3447 14.4727C19.2622 14.4851 19.1824 14.5151 19.1123 14.5615C19.019 14.6234 18.9455 14.7116 18.9014 14.8145L18.8984 14.8223C18.8521 14.9272 18.8381 15.0444 18.8584 15.1572C18.8789 15.2701 18.9335 15.375 19.0137 15.457L19.0557 15.5H19.0566C19.2858 15.7289 19.4677 16.0016 19.5918 16.3008C19.7158 16.6 19.7802 16.9212 19.7803 17.2451C19.7803 17.5692 19.7159 17.891 19.5918 18.1904C19.4678 18.4894 19.2856 18.7604 19.0566 18.9893C18.8276 19.2186 18.5562 19.4013 18.2568 19.5254C17.9575 19.6494 17.6365 19.7138 17.3125 19.7139C16.9885 19.7138 16.6665 19.6495 16.3672 19.5254C16.1431 19.4324 15.9339 19.3067 15.7471 19.1533L15.5674 18.9902L15.5234 18.9463C15.4414 18.8663 15.3364 18.8124 15.2236 18.792C15.1109 18.7717 14.9945 18.7858 14.8896 18.832L14.8818 18.835C14.779 18.8791 14.6908 18.9526 14.6289 19.0459C14.5671 19.1393 14.5337 19.2493 14.5332 19.3613V19.5C14.5331 20.1541 14.2731 20.7816 13.8105 21.2441C13.348 21.7066 12.7205 21.9668 12.0664 21.9668C11.4124 21.9667 10.7847 21.7065 10.3223 21.2441C9.85997 20.7817 9.5997 20.1539 9.59961 19.5V19.4434C9.59684 19.3282 9.5602 19.2158 9.49316 19.1221C9.42607 19.0284 9.33175 18.9568 9.22363 18.917C9.20801 18.9112 9.19199 18.9052 9.17676 18.8984C9.07176 18.8522 8.95469 18.8379 8.8418 18.8584C8.7289 18.879 8.62403 18.9334 8.54199 19.0137L8.49902 19.0566C8.26994 19.286 7.99768 19.4677 7.69824 19.5918C7.39888 19.7159 7.07796 19.7803 6.75391 19.7803C6.42992 19.7802 6.10886 19.7158 5.80957 19.5918C5.5103 19.4677 5.23776 19.2859 5.00879 19.0566V19.0557C4.78013 18.8269 4.5975 18.5557 4.47363 18.2568C4.34966 17.9576 4.28618 17.6364 4.28613 17.3125C4.28618 16.9885 4.34954 16.6665 4.47363 16.3672C4.59768 16.0681 4.77977 15.7963 5.00879 15.5674L5.05273 15.5234C5.13304 15.4413 5.18654 15.3367 5.20703 15.2236C5.22734 15.1109 5.21416 14.9945 5.16797 14.8896L5.16406 14.8818C5.11987 14.7789 5.04649 14.6907 4.95312 14.6289C4.88313 14.5826 4.804 14.5515 4.72168 14.5391L4.6377 14.5332H4.5C3.84602 14.5331 3.21834 14.2729 2.75586 13.8105C2.2935 13.348 2.03322 12.7204 2.0332 12.0664C2.03329 11.4123 2.29336 10.7848 2.75586 10.3223C3.21835 9.85984 3.84599 9.59971 4.5 9.59961H4.55566C4.67087 9.59691 4.78318 9.56013 4.87695 9.49316C4.97076 9.42607 5.04219 9.33186 5.08203 9.22363L5.10156 9.17676C5.14787 9.07171 5.16111 8.95476 5.14062 8.8418C5.12058 8.73185 5.06902 8.62982 4.99219 8.54883L4.94238 8.49902C4.71326 8.27003 4.53127 7.99749 4.40723 7.69824C4.28326 7.39898 4.21876 7.07784 4.21875 6.75391C4.21879 6.42996 4.28321 6.10884 4.40723 5.80957C4.50027 5.58516 4.6257 5.37555 4.7793 5.18848L4.94238 5.00879C5.17126 4.77977 5.44311 4.59768 5.74219 4.47363C6.04152 4.34955 6.36347 4.28618 6.6875 4.28613C7.01138 4.28618 7.33262 4.34967 7.63184 4.47363C7.93087 4.59759 8.20275 4.7799 8.43164 5.00879L8.48145 5.05762C8.56263 5.135 8.66495 5.18692 8.77539 5.20703C8.88835 5.2275 9.00531 5.21428 9.11035 5.16797L9.1875 5.13867C9.21503 5.12979 9.24319 5.12206 9.27148 5.11621C9.33686 5.07355 9.39401 5.01879 9.4375 4.95312C9.49868 4.86064 9.5321 4.75243 9.5332 4.6416V4.5C9.53329 3.84593 9.79336 3.21837 10.2559 2.75586C10.7184 2.29336 11.3459 2.0333 12 2.0332ZM12 3.63281C11.7703 3.63291 11.5492 3.72427 11.3867 3.88672C11.2243 4.04917 11.1329 4.27027 11.1328 4.5V4.64453C11.1311 5.06868 11.0057 5.48327 10.7715 5.83691C10.5373 6.19054 10.2043 6.46768 9.81445 6.63477C9.74704 6.66361 9.67589 6.68191 9.60352 6.69141C9.24748 6.81742 8.86372 6.84986 8.49023 6.78223C8.06278 6.70464 7.66701 6.50008 7.35645 6.19629L7.30078 6.14062V6.13965C7.22049 6.05936 7.1244 5.99569 7.01953 5.95215C6.91454 5.90869 6.80113 5.88578 6.6875 5.88574C6.57376 5.88579 6.46055 5.9086 6.35547 5.95215C6.25047 5.99571 6.1546 6.05926 6.07422 6.13965L6.07324 6.14062C5.99279 6.221 5.92934 6.31685 5.88574 6.42188C5.84217 6.52698 5.81938 6.64013 5.81934 6.75391C5.81934 6.86763 5.84225 6.98086 5.88574 7.08594C5.92929 7.19086 5.99292 7.28686 6.07324 7.36719L6.12402 7.41699L6.12988 7.42383C6.43362 7.73439 6.63727 8.12923 6.71484 8.55664C6.78927 8.96724 6.7421 9.38942 6.58301 9.77441L6.58398 9.77539C6.43334 10.185 6.1626 10.5401 5.80762 10.7939C5.45277 11.0477 5.02988 11.1889 4.59375 11.1992H4.5C4.27034 11.1993 4.04915 11.2908 3.88672 11.4531C3.72428 11.6156 3.6329 11.8367 3.63281 12.0664C3.63283 12.2959 3.7246 12.5163 3.88672 12.6787C4.04916 12.8412 4.27028 12.9325 4.5 12.9326H4.64453C5.06854 12.9343 5.48335 13.0609 5.83691 13.2949C6.18782 13.5274 6.46342 13.8571 6.63086 14.2432C6.80629 14.6407 6.85969 15.0822 6.78223 15.5098C6.70467 15.9373 6.50015 16.3319 6.19629 16.6426L6.13965 16.6992C6.05926 16.7796 5.9957 16.8755 5.95215 16.9805C5.9086 17.0856 5.88579 17.1987 5.88574 17.3125C5.88578 17.4261 5.90869 17.5395 5.95215 17.6445C5.9957 17.7494 6.05936 17.8455 6.13965 17.9258H6.14062C6.221 18.0062 6.31684 18.0706 6.42188 18.1143C6.52698 18.1578 6.64014 18.1796 6.75391 18.1797C6.8677 18.1797 6.9808 18.1578 7.08594 18.1143C7.1911 18.0706 7.28673 18.0063 7.36719 17.9258L7.42383 17.8691C7.73438 17.5655 8.12927 17.3617 8.55664 17.2842C8.96696 17.2098 9.38964 17.2562 9.77441 17.415H9.77539C10.1848 17.5656 10.5401 17.8367 10.7939 18.1914C11.0478 18.5463 11.1889 18.9701 11.1992 19.4062V19.5C11.1993 19.7294 11.2911 19.9499 11.4531 20.1123C11.6156 20.2747 11.8367 20.3661 12.0664 20.3662C12.2962 20.3662 12.5162 20.2747 12.6787 20.1123C12.8412 19.9499 12.9325 19.7297 12.9326 19.5V19.3545C12.9344 18.9305 13.0608 18.5156 13.2949 18.1621C13.529 17.8088 13.8614 17.5313 14.251 17.3643C14.6464 17.1916 15.085 17.1408 15.5098 17.2178C15.8837 17.2856 16.2331 17.4499 16.5225 17.6934L16.6426 17.8027L16.6484 17.8086L16.6982 17.8594H16.6992C16.7796 17.9398 16.8755 18.0043 16.9805 18.0479C17.0855 18.0913 17.1988 18.1132 17.3125 18.1133C17.4262 18.1132 17.5395 18.0914 17.6445 18.0479C17.7496 18.0042 17.8454 17.9399 17.9258 17.8594V17.8584C18.0063 17.7779 18.0707 17.6823 18.1143 17.5771C18.1578 17.4721 18.1797 17.3589 18.1797 17.2451C18.1796 17.1316 18.1577 17.0189 18.1143 16.9141C18.0707 16.8091 18.0062 16.7132 17.9258 16.6328V16.6318L17.876 16.582L17.8691 16.5762C17.5655 16.2657 17.3617 15.8706 17.2842 15.4434C17.2073 15.0187 17.2581 14.5799 17.4307 14.1846L17.499 14.041C17.6689 13.7131 17.9202 13.4324 18.2295 13.2275C18.583 12.9936 18.998 12.868 19.4219 12.8662H19.5C19.7297 12.8661 19.9499 12.7748 20.1123 12.6123C20.2748 12.4499 20.3661 12.2297 20.3662 12C20.3661 11.7703 20.2748 11.5492 20.1123 11.3867C19.9499 11.2246 19.7295 11.1329 19.5 11.1328H19.3545C18.9306 11.131 18.5156 11.0056 18.1621 10.7715C17.8088 10.5373 17.5312 10.2041 17.3643 9.81445C17.3357 9.74773 17.3172 9.67707 17.3076 9.60547C17.1812 9.24899 17.15 8.86426 17.2178 8.49023C17.2953 8.06273 17.4989 7.66705 17.8027 7.35645L17.8086 7.35059L17.8594 7.30078L17.917 7.2373C17.9709 7.17165 18.0152 7.09827 18.0479 7.01953C18.0914 6.91446 18.1132 6.80122 18.1133 6.6875C18.1132 6.57383 18.0913 6.46049 18.0479 6.35547C18.0043 6.25048 17.9398 6.15457 17.8594 6.07422L17.8584 6.07324C17.778 5.99292 17.6821 5.92926 17.5771 5.88574C17.4721 5.84225 17.3588 5.81934 17.2451 5.81934C17.1316 5.81944 17.019 5.84228 16.9141 5.88574C16.8091 5.9293 16.7132 5.99286 16.6328 6.07324H16.6318L16.582 6.12402L16.5762 6.12988C16.2656 6.43364 15.8708 6.63724 15.4434 6.71484C15.0185 6.79181 14.5801 6.74016 14.1846 6.56738V6.56836C13.7949 6.40126 13.4617 6.12399 13.2275 5.77051C12.9935 5.41701 12.868 5.00205 12.8662 4.57812V4.5C12.8661 4.27027 12.7748 4.04917 12.6123 3.88672C12.4499 3.72458 12.2295 3.6329 12 3.63281ZM12 8.7002C13.8225 8.7002 15.2998 10.1775 15.2998 12C15.2998 13.8225 13.8225 15.2998 12 15.2998C10.1775 15.2998 8.7002 13.8225 8.7002 12C8.7002 10.1775 10.1775 8.7002 12 8.7002ZM12 10.2998C11.0611 10.2998 10.2998 11.0611 10.2998 12C10.2998 12.9389 11.0611 13.7002 12 13.7002C12.9389 13.7002 13.7002 12.9389 13.7002 12C13.7002 11.0611 12.9389 10.2998 12 10.2998Z" fill="#101828"/>
</svg>
