<svg width="24" height="24" viewBox="0 0 24 24" fill="none" xmlns="http://www.w3.org/2000/svg">
<path fill-rule="evenodd" clip-rule="evenodd" d="M11.6221 2.96161C11.8969 2.81418 12.2384 2.8384 12.4912 3.03485L19.9912 8.86884C20.1858 9.0203 20.2996 9.25309 20.2998 9.4997V18.6667C20.2998 19.2392 20.1009 19.7912 19.7412 20.2302L19.5771 20.4108C19.1146 20.8733 18.4871 21.1335 17.833 21.1335H14.5166C14.5111 21.1336 14.5055 21.1345 14.5 21.1345C14.4945 21.1345 14.4889 21.1336 14.4834 21.1335H9.50977C9.50651 21.1335 9.50326 21.1345 9.5 21.1345C9.49674 21.1345 9.49349 21.1335 9.49023 21.1335H6.16699C5.59463 21.1335 5.04242 20.9345 4.60352 20.5749L4.42285 20.4108C4.01822 20.0062 3.76804 19.4753 3.71191 18.9108L3.7002 18.6667V9.4997L3.70508 9.4079C3.72966 9.1961 3.83851 9.00135 4.00879 8.86884L11.5088 3.03485L11.6221 2.96161ZM5.2998 9.8913V18.6667L5.30469 18.7526C5.32444 18.9509 5.41163 19.1378 5.55371 19.28L5.61719 19.3366C5.77147 19.4632 5.96571 19.5329 6.16699 19.5329H8.7002V12.0007L8.7041 11.9186C8.74518 11.5153 9.08587 11.2009 9.5 11.2009H14.5L14.582 11.2048C14.9853 11.2459 15.2998 11.5866 15.2998 12.0007V19.5329H17.833C18.0628 19.5329 18.2838 19.4424 18.4463 19.28L18.5039 19.2155C18.63 19.0614 18.7002 18.8676 18.7002 18.6667V9.8913L12 4.68036L5.2998 9.8913ZM10.2998 19.5329H13.7002V12.8005H10.2998V19.5329Z" fill="#101828"/>
</svg>
