<svg width="350" height="54" viewBox="0 0 350 54" fill="none" xmlns="http://www.w3.org/2000/svg">
<rect width="350" height="54" rx="14" fill="black"/>
<path d="M129.969 21.8477C130.141 21.8477 130.434 21.875 130.848 21.9297C131.262 21.9844 131.715 22.1406 132.207 22.3984C132.707 22.6484 133.16 23.0664 133.566 23.6523C133.543 23.6758 133.43 23.7617 133.227 23.9102C133.023 24.0508 132.797 24.2617 132.547 24.543C132.297 24.8164 132.078 25.168 131.891 25.5977C131.703 26.0195 131.609 26.5234 131.609 27.1094C131.609 27.7812 131.727 28.3516 131.961 28.8203C132.203 29.2891 132.48 29.668 132.793 29.957C133.113 30.2383 133.395 30.4453 133.637 30.5781C133.887 30.7109 134.02 30.7812 134.035 30.7891C134.027 30.8203 133.926 31.0977 133.73 31.6211C133.543 32.1445 133.23 32.7266 132.793 33.3672C132.41 33.9219 131.996 34.4336 131.551 34.9023C131.113 35.3711 130.586 35.6055 129.969 35.6055C129.555 35.6055 129.215 35.5469 128.949 35.4297C128.684 35.3047 128.41 35.1836 128.129 35.0664C127.848 34.9414 127.469 34.8789 126.992 34.8789C126.531 34.8789 126.145 34.9414 125.832 35.0664C125.527 35.1914 125.234 35.3164 124.953 35.4414C124.68 35.5664 124.355 35.6289 123.98 35.6289C123.41 35.6289 122.91 35.4023 122.48 34.9492C122.051 34.4961 121.609 33.9531 121.156 33.3203C120.633 32.5703 120.184 31.6562 119.809 30.5781C119.441 29.4922 119.258 28.3984 119.258 27.2969C119.258 26.1172 119.48 25.1289 119.926 24.332C120.371 23.5273 120.941 22.9219 121.637 22.5156C122.34 22.1016 123.066 21.8945 123.816 21.8945C124.215 21.8945 124.59 21.9609 124.941 22.0938C125.293 22.2188 125.621 22.3477 125.926 22.4805C126.238 22.6133 126.52 22.6797 126.77 22.6797C127.012 22.6797 127.293 22.6094 127.613 22.4688C127.934 22.3281 128.293 22.1914 128.691 22.0586C129.09 21.918 129.516 21.8477 129.969 21.8477ZM129.324 20.3594C129.02 20.7266 128.637 21.0352 128.176 21.2852C127.715 21.5273 127.277 21.6484 126.863 21.6484C126.777 21.6484 126.695 21.6406 126.617 21.625C126.609 21.6016 126.602 21.5586 126.594 21.4961C126.586 21.4336 126.582 21.3672 126.582 21.2969C126.582 20.8281 126.684 20.375 126.887 19.9375C127.09 19.4922 127.32 19.125 127.578 18.8359C127.906 18.4453 128.32 18.1211 128.82 17.8633C129.32 17.6055 129.797 17.4688 130.25 17.4531C130.273 17.5547 130.285 17.6758 130.285 17.8164C130.285 18.2852 130.195 18.7422 130.016 19.1875C129.836 19.625 129.605 20.0156 129.324 20.3594Z" fill="white"/>
<path d="M143.984 32.5H141.812L145.797 21.1875H148.297L152.297 32.5H150.125L149.18 29.7031H144.922L143.984 32.5ZM145.469 28.0625H148.633L147.094 23.5H147L145.469 28.0625ZM153.547 35.6875V24.0156H155.5V25.4062H155.625C155.93 24.8047 156.555 23.9062 158.062 23.9062C160.016 23.9062 161.555 25.4375 161.562 28.2656C161.555 31.0547 160.062 32.6484 158.062 32.6562C156.602 32.6484 155.938 31.7812 155.625 31.1562H155.547V35.6875H153.547ZM155.5 28.25C155.508 29.9062 156.227 31.0156 157.516 31.0156C158.836 31.0156 159.531 29.8516 159.531 28.25C159.531 26.6719 158.852 25.5391 157.516 25.5312C156.211 25.5391 155.508 26.6016 155.5 28.25ZM163.125 35.6875V24.0156H165.078V25.4062H165.203C165.508 24.8047 166.133 23.9062 167.641 23.9062C169.594 23.9062 171.133 25.4375 171.141 28.2656C171.133 31.0547 169.641 32.6484 167.641 32.6562C166.18 32.6484 165.516 31.7812 165.203 31.1562H165.125V35.6875H163.125ZM165.078 28.25C165.086 29.9062 165.805 31.0156 167.094 31.0156C168.414 31.0156 169.109 29.8516 169.109 28.25C169.109 26.6719 168.43 25.5391 167.094 25.5312C165.789 25.5391 165.086 26.6016 165.078 28.25ZM174.703 21.1875V32.5H172.703V21.1875H174.703ZM180.375 32.6719C177.82 32.6719 176.25 30.9688 176.25 28.3125C176.25 25.6875 177.844 23.9062 180.266 23.9062C182.344 23.9062 184.141 25.2109 184.141 28.1875V28.8125H178.219C178.25 30.2578 179.102 31.1172 180.391 31.1094C181.266 31.1172 181.852 30.7422 182.109 30.2344H184.062C183.703 31.7031 182.344 32.6719 180.375 32.6719ZM178.227 27.4531H182.234C182.227 26.2969 181.445 25.4531 180.297 25.4531C179.102 25.4531 178.297 26.375 178.227 27.4531ZM201.906 30.8125V32.25H189V30.8125H194.562V28.5156H190.531V23.8906H198.656V22.1406H190.5V20.7344H200.375V25.2656H192.266V27.0938H200.703V28.5156H196.281V30.8125H201.906ZM214.062 21.1406V22.7344C214.062 24.625 214.062 26.5703 213.547 29.5469L211.781 29.3906C212.328 26.6172 212.328 24.5703 212.328 22.7344V22.5469H204.188V21.1406H214.062ZM202.828 31.9531V30.5312H215.703V31.9531H202.828ZM228.422 19.7812V29.9844H226.672V19.7812H228.422ZM216.906 24.2344C216.906 22.1797 218.57 20.7109 220.719 20.7031C222.867 20.7109 224.523 22.1797 224.516 24.2344C224.523 26.3203 222.867 27.7812 220.719 27.7812C218.57 27.7812 216.906 26.3203 216.906 24.2344ZM218.609 24.2344C218.602 25.4844 219.508 26.2656 220.719 26.2656C221.898 26.2656 222.812 25.4844 222.812 24.2344C222.812 23.0156 221.898 22.2188 220.719 22.2188C219.508 22.2188 218.602 23.0156 218.609 24.2344ZM219.078 33.6094V28.9531H220.828V32.2031H228.812V33.6094H219.078Z" fill="white"/>
</svg>
