<svg width="24" height="24" viewBox="0 0 24 24" fill="none" xmlns="http://www.w3.org/2000/svg">
<path d="M4.58984 16.2041C4.99339 16.2449 5.30859 16.5857 5.30859 17C5.30859 17.4143 4.99339 17.7551 4.58984 17.7959L4.50879 17.7998H4.5C4.05817 17.7998 3.7002 17.4418 3.7002 17C3.7002 16.5582 4.05817 16.2002 4.5 16.2002H4.50879L4.58984 16.2041Z" fill="#101828"/>
<path d="M19.582 16.2041C19.9853 16.2452 20.3008 16.5859 20.3008 17C20.3008 17.4141 19.9853 17.7548 19.582 17.7959L19.5 17.7998H8.66699C8.22516 17.7998 7.86719 17.4418 7.86719 17C7.86719 16.5582 8.22516 16.2002 8.66699 16.2002H19.5L19.582 16.2041Z" fill="#101828"/>
<path d="M4.58984 11.2041C4.99339 11.2449 5.30859 11.5857 5.30859 12C5.30859 12.4143 4.99339 12.7551 4.58984 12.7959L4.50879 12.7998H4.5C4.05817 12.7998 3.7002 12.4418 3.7002 12C3.7002 11.5582 4.05817 11.2002 4.5 11.2002H4.50879L4.58984 11.2041Z" fill="#101828"/>
<path d="M19.582 11.2041C19.9853 11.2452 20.3008 11.5859 20.3008 12C20.3008 12.4141 19.9853 12.7548 19.582 12.7959L19.5 12.7998H8.66699C8.22516 12.7998 7.86719 12.4418 7.86719 12C7.86719 11.5582 8.22516 11.2002 8.66699 11.2002H19.5L19.582 11.2041Z" fill="#101828"/>
<path d="M4.58984 6.2041C4.99339 6.24494 5.30859 6.58569 5.30859 7C5.30859 7.41431 4.99339 7.75506 4.58984 7.7959L4.50879 7.7998H4.5C4.05817 7.7998 3.7002 7.44183 3.7002 7C3.7002 6.55817 4.05817 6.2002 4.5 6.2002H4.50879L4.58984 6.2041Z" fill="#101828"/>
<path d="M19.582 6.2041C19.9853 6.24519 20.3008 6.58588 20.3008 7C20.3008 7.41412 19.9853 7.75481 19.582 7.7959L19.5 7.7998H8.66699C8.22516 7.7998 7.86719 7.44183 7.86719 7C7.86719 6.55817 8.22516 6.2002 8.66699 6.2002H19.5L19.582 6.2041Z" fill="#101828"/>
</svg>
