<svg width="350" height="54" viewBox="0 0 350 54" fill="none" xmlns="http://www.w3.org/2000/svg">
<rect width="350" height="54" rx="14" fill="#FEE500"/>
<g clip-path="url(#clip0_307_209)">
<path fill-rule="evenodd" clip-rule="evenodd" d="M127.5 18.6001C122.529 18.6001 118.5 21.7131 118.5 25.5524C118.5 27.9401 120.058 30.0451 122.432 31.2971L121.433 34.9446C121.345 35.2669 121.713 35.5238 121.996 35.337L126.373 32.4483C126.743 32.4839 127.118 32.5047 127.5 32.5047C132.47 32.5047 136.5 29.3919 136.5 25.5524C136.5 21.7131 132.47 18.6001 127.5 18.6001Z" fill="black"/>
</g>
<path d="M152.312 21.1562C152.305 25.4219 151.141 29.0859 145.937 31.6719L144.984 30.3594C147.43 29.1562 148.891 27.7422 149.711 26.0703L145.312 26.4844L145.094 24.9844L150.234 24.6641C150.414 24 150.531 23.3047 150.586 22.5625H145.828V21.1562H152.312ZM154.297 33.8594V19.7656H156.031V25.2969H158.125V26.7188H156.031V33.8594H154.297ZM166.141 21.1562C166.133 25.4219 164.969 29.0859 159.766 31.6719L158.812 30.3594C161.258 29.1562 162.719 27.7422 163.539 26.0703L159.141 26.4844L158.922 24.9844L164.062 24.6641C164.242 24 164.359 23.3047 164.414 22.5625H159.656V21.1562H166.141ZM168.125 33.8594V19.7656H169.859V25.2969H171.953V26.7188H169.859V33.8594H168.125ZM179.047 20.5625C182.078 20.5703 184.32 22.0781 184.312 24.375C184.32 26.4922 182.5 27.9062 179.906 28.1641V30.75H185.531V32.1719H172.625V30.75H178.187V28.1641C175.625 27.9062 173.805 26.4922 173.812 24.375C173.805 22.0781 176.039 20.5703 179.047 20.5625ZM175.516 24.375C175.508 25.8984 176.984 26.8125 179.047 26.8125C181.141 26.8125 182.609 25.8984 182.609 24.375C182.609 22.8984 181.141 21.9609 179.047 21.9688C176.984 21.9609 175.508 22.8984 175.516 24.375ZM203.156 30.8125V32.25H190.25V30.8125H195.812V28.5156H191.781V23.8906H199.906V22.1406H191.75V20.7344H201.625V25.2656H193.516V27.0938H201.953V28.5156H197.531V30.8125H203.156ZM215.312 21.1406V22.7344C215.312 24.625 215.312 26.5703 214.797 29.5469L213.031 29.3906C213.578 26.6172 213.578 24.5703 213.578 22.7344V22.5469H205.437V21.1406H215.312ZM204.078 31.9531V30.5312H216.953V31.9531H204.078ZM229.672 19.7812V29.9844H227.922V19.7812H229.672ZM218.156 24.2344C218.156 22.1797 219.82 20.7109 221.969 20.7031C224.117 20.7109 225.773 22.1797 225.766 24.2344C225.773 26.3203 224.117 27.7812 221.969 27.7812C219.82 27.7812 218.156 26.3203 218.156 24.2344ZM219.859 24.2344C219.851 25.4844 220.758 26.2656 221.969 26.2656C223.148 26.2656 224.062 25.4844 224.062 24.2344C224.062 23.0156 223.148 22.2188 221.969 22.2188C220.758 22.2188 219.851 23.0156 219.859 24.2344ZM220.328 33.6094V28.9531H222.078V32.2031H230.062V33.6094H220.328Z" fill="black" fill-opacity="0.85"/>
<defs>
<clipPath id="clip0_307_209">
<rect width="17.9999" height="18" fill="white" transform="translate(118.5 18)"/>
</clipPath>
</defs>
</svg>
